<?xml version="1.0" encoding="UTF-8"?>
<svg width="556px" height="254px" viewBox="0 0 556 254" version="1.1" xmlns="http://www.w3.org/2000/svg" xmlns:xlink="http://www.w3.org/1999/xlink">
    <!-- Generator: Sketch 62 (91390) - https://sketch.com -->
    <title>Noorderboog_Zorggroep</title>
    <desc>Created with Sketch.</desc>
    <defs>
        <polygon id="path-1" points="0.06 0.929 369.964 0.929 369.964 122.687 0.06 122.687"></polygon>
        <polygon id="path-3" points="0.525 0.745 97.98 0.745 97.98 67.14 0.525 67.14"></polygon>
    </defs>
    <g id="Noorderboog_Zorggroep" stroke="none" stroke-width="1" fill="none" fill-rule="evenodd">
        <path d="M188.652,40.413 L188.652,64.258 C206.273,64.258 220.604,78.589 220.604,96.21 L220.625,96.21 C220.625,83.241 225.085,71.298 232.536,61.811 C222.315,48.798 206.449,40.413 188.652,40.413" id="Fill-1" fill="#F9C623"></path>
        <path d="M320.351,61.868 C327.778,71.345 332.221,83.267 332.221,96.21 L332.328,96.21 C332.328,78.592 346.663,64.257 364.28,64.257 L364.28,40.411 C346.458,40.411 330.572,48.822 320.351,61.868" id="Fill-2" fill="#7FB987"></path>
        <path d="M276.421,40.413 C258.624,40.413 242.762,48.798 232.538,61.811 C239.989,71.298 244.449,83.241 244.449,96.21 L244.469,96.21 C244.469,78.589 258.804,64.258 276.421,64.258 C294.042,64.258 308.373,78.589 308.373,96.21 L308.481,96.21 C308.481,83.264 312.926,71.346 320.35,61.869 C310.129,48.822 294.243,40.413 276.421,40.413" id="Fill-3" fill="#00A0B3"></path>
        <path d="M220.624,96.21 L244.449,96.21 C244.449,83.24 239.989,71.297 232.538,61.814 C225.083,71.297 220.624,83.24 220.624,96.21" id="Fill-4" fill="#CE9631"></path>
        <path d="M308.482,96.21 L332.221,96.21 C332.221,83.264 327.775,71.346 320.352,61.869 C312.924,71.346 308.482,83.264 308.482,96.21" id="Fill-5" fill="#325A58"></path>
        <path d="M204.081,15.155 C204.081,7.077 197.534,0.529 189.456,0.529 C181.378,0.529 174.83,7.077 174.83,15.155 C174.83,23.233 181.378,29.781 189.456,29.781 C197.534,29.781 204.081,23.233 204.081,15.155" id="Fill-6" fill="#F9C623"></path>
        <path d="M277.281,29.78 C285.359,29.78 291.907,23.233 291.907,15.156 C291.907,7.078 285.359,0.529 277.281,0.529 C269.203,0.529 262.656,7.078 262.656,15.156 C262.656,23.233 269.203,29.78 277.281,29.78" id="Fill-7" fill="#00A0B3"></path>
        <path d="M365.456,0.53 C357.378,0.53 350.831,7.078 350.831,15.156 C350.831,23.234 357.378,29.781 365.456,29.781 C373.534,29.781 380.081,23.234 380.081,15.156 C380.081,7.078 373.534,0.53 365.456,0.53" id="Fill-8" fill="#7FB987"></path>
        <polyline id="Fill-9" fill="#0B1925" points="204.762 223.111 190.8 242.221 204.762 242.221 204.762 245.848 185.418 245.848 185.418 242.456 199.614 223.463 185.73 223.463 185.73 219.836 204.762 219.836"></polyline>
        <path d="M223.871,236.06 C223.871,233.773 223.442,232.063 222.584,230.931 C221.726,229.8 220.361,229.235 218.489,229.235 C216.591,229.235 215.233,229.814 214.414,230.97 C213.595,232.127 213.185,233.825 213.185,236.06 C213.185,238.296 213.607,240.005 214.453,241.189 C215.297,242.372 216.643,242.963 218.489,242.963 C222.077,242.963 223.871,240.663 223.871,236.06 M211.489,243.782 C209.915,242.014 209.129,239.44 209.129,236.06 C209.129,229.222 212.249,225.803 218.489,225.803 C221.635,225.803 224.001,226.68 225.587,228.436 C227.173,230.191 227.966,232.732 227.966,236.06 C227.966,239.388 227.147,241.949 225.509,243.743 C223.871,245.538 221.544,246.434 218.528,246.434 C215.408,246.434 213.061,245.55 211.489,243.782" id="Fill-10" fill="#0B1925"></path>
        <path d="M232.685,228.064 C233.413,227.623 234.647,227.141 236.39,226.622 C238.131,226.101 239.861,225.841 241.577,225.841 C242.616,225.841 243.5,226.01 244.229,226.348 L244.229,229.625 C243.5,229.521 242.63,229.468 241.616,229.468 C239.9,229.468 238.288,229.598 236.78,229.858 L236.78,245.848 L232.685,245.848" id="Fill-11" fill="#0B1925"></path>
        <path d="M252.73,241.305 C253.613,242.489 254.927,243.08 256.669,243.08 C258.359,243.08 259.841,242.703 261.115,241.949 L261.115,231.692 C261.115,230.783 260.77,230.159 260.082,229.82 C259.392,229.483 258.463,229.313 257.293,229.313 C255.083,229.313 253.549,229.951 252.691,231.224 C251.833,232.498 251.404,234.253 251.404,236.489 C251.404,238.517 251.846,240.122 252.73,241.305 M263.006,227.129 C264.449,227.987 265.171,229.248 265.171,230.912 L265.171,246.434 C265.171,248.669 264.443,250.49 262.987,251.894 C261.53,253.298 259.217,254 256.045,254 C253.73,254 251.625,253.649 249.727,252.947 L249.727,249.202 C251.885,250.008 253.887,250.412 255.733,250.412 C257.813,250.412 259.23,250.041 259.984,249.3 C260.738,248.56 261.115,247.577 261.115,246.356 L261.115,245.03 C260.36,245.447 259.535,245.784 258.638,246.044 C257.741,246.304 256.864,246.434 256.006,246.434 C253.146,246.381 250.968,245.511 249.473,243.821 C247.978,242.131 247.231,239.726 247.231,236.606 C247.231,232.55 248.167,229.742 250.039,228.182 C251.911,226.622 254.407,225.842 257.527,225.842 C259.736,225.842 261.563,226.271 263.006,227.129" id="Fill-12" fill="#0B1925"></path>
        <path d="M275.311,241.305 C276.194,242.489 277.508,243.08 279.25,243.08 C280.94,243.08 282.422,242.703 283.696,241.949 L283.696,231.692 C283.696,230.783 283.351,230.159 282.663,229.82 C281.973,229.483 281.044,229.313 279.874,229.313 C277.664,229.313 276.13,229.951 275.272,231.224 C274.414,232.498 273.985,234.253 273.985,236.489 C273.985,238.517 274.427,240.122 275.311,241.305 M285.587,227.129 C287.03,227.987 287.752,229.248 287.752,230.912 L287.752,246.434 C287.752,248.669 287.024,250.49 285.568,251.894 C284.111,253.298 281.798,254 278.626,254 C276.311,254 274.206,253.649 272.308,252.947 L272.308,249.202 C274.466,250.008 276.468,250.412 278.314,250.412 C280.394,250.412 281.811,250.041 282.565,249.3 C283.319,248.56 283.696,247.577 283.696,246.356 L283.696,245.03 C282.941,245.447 282.116,245.784 281.219,246.044 C280.322,246.304 279.445,246.434 278.587,246.434 C275.727,246.381 273.549,245.511 272.054,243.821 C270.559,242.131 269.812,239.726 269.812,236.606 C269.812,232.55 270.748,229.742 272.62,228.182 C274.492,226.622 276.988,225.842 280.108,225.842 C282.317,225.842 284.144,226.271 285.587,227.129" id="Fill-13" fill="#0B1925"></path>
        <path d="M293.407,228.064 C294.135,227.623 295.369,227.141 297.112,226.622 C298.854,226.101 300.582,225.841 302.299,225.841 C303.338,225.841 304.223,226.01 304.95,226.348 L304.95,229.625 C304.223,229.521 303.352,229.468 302.338,229.468 C300.621,229.468 299.009,229.598 297.501,229.858 L297.501,245.848 L293.407,245.848" id="Fill-14" fill="#0B1925"></path>
        <path d="M321.604,236.06 C321.604,233.773 321.174,232.063 320.317,230.931 C319.458,229.8 318.093,229.235 316.222,229.235 C314.324,229.235 312.965,229.814 312.146,230.97 C311.328,232.127 310.917,233.825 310.917,236.06 C310.917,238.296 311.34,240.005 312.185,241.189 C313.03,242.372 314.375,242.963 316.222,242.963 C319.81,242.963 321.604,240.663 321.604,236.06 M309.221,243.782 C307.648,242.014 306.862,239.44 306.862,236.06 C306.862,229.222 309.982,225.803 316.222,225.803 C319.368,225.803 321.734,226.68 323.32,228.436 C324.906,230.191 325.699,232.732 325.699,236.06 C325.699,239.388 324.879,241.949 323.242,243.743 C321.604,245.538 319.277,246.434 316.261,246.434 C313.141,246.434 310.794,245.55 309.221,243.782" id="Fill-15" fill="#0B1925"></path>
        <path d="M335.136,230.249 C334.356,230.977 333.849,232.212 333.615,233.954 L343.091,233.954 C342.909,232.29 342.442,231.074 341.688,230.308 C340.933,229.541 339.828,229.156 338.372,229.156 C336.994,229.156 335.915,229.521 335.136,230.249 M345.178,228.747 C346.595,230.711 347.29,233.46 347.265,236.996 L333.536,236.996 C333.666,238.92 334.232,240.383 335.233,241.383 C336.234,242.385 337.657,242.885 339.503,242.885 C340.699,242.885 341.844,242.735 342.936,242.437 C344.028,242.138 344.99,241.754 345.822,241.285 L345.822,245.107 C343.793,245.991 341.466,246.434 338.84,246.434 C335.903,246.434 333.595,245.543 331.918,243.762 C330.241,241.981 329.403,239.452 329.403,236.177 C329.403,232.822 330.196,230.255 331.782,228.475 C333.367,226.693 335.604,225.803 338.49,225.803 C341.532,225.803 343.761,226.784 345.178,228.747" id="Fill-16" fill="#0B1925"></path>
        <g id="Group-20" transform="translate(0.000000, 131.000000)">
            <mask id="mask-2" fill="white">
                <use xlink:href="#path-1"></use>
            </mask>
            <g id="Clip-18"></g>
            <path d="M364.367,110.227 C365.316,109.095 365.791,107.464 365.791,105.332 C365.791,103.123 365.393,101.407 364.601,100.184 C363.807,98.962 362.397,98.351 360.37,98.351 C359.069,98.351 358.022,98.495 357.23,98.78 C356.436,99.067 356.041,99.456 356.041,99.95 L356.041,110.792 C357.314,111.546 358.692,111.923 360.175,111.923 C362.02,111.923 363.418,111.358 364.367,110.227 M367.37,97.298 C369.098,98.962 369.964,101.666 369.964,105.41 C369.964,108.478 369.17,110.909 367.585,112.704 C365.998,114.498 363.775,115.394 360.916,115.394 C360.214,115.394 359.407,115.303 358.498,115.122 C357.587,114.939 356.768,114.666 356.041,114.302 L356.041,122.687 L351.984,122.687 L351.984,99.053 C351.984,97.571 352.823,96.493 354.5,95.816 C356.177,95.14 358.185,94.802 360.525,94.802 C363.359,94.802 365.64,95.634 367.37,97.298" id="Fill-17" fill="#0B1925" mask="url(#mask-2)"></path>
            <polyline id="Fill-19" fill="#0B1925" mask="url(#mask-2)" points="51.799 0.929 51.799 60.292 40.941 60.292 13.262 24.158 13.262 60.292 0 60.292 0 0.929 12.282 0.929 38.537 36.262 38.537 0.929"></polyline>
        </g>
        <path d="M92.472,178.609 C94.132,176.326 94.963,172.988 94.963,168.597 C94.963,163.791 94.147,160.364 92.516,158.317 C90.883,156.27 88.407,155.247 85.084,155.247 C81.643,155.247 79.166,156.27 77.653,158.317 C76.14,160.364 75.383,163.791 75.383,168.597 C75.383,173.166 76.169,176.548 77.743,178.743 C79.314,180.939 81.761,182.036 85.084,182.036 C88.347,182.036 90.81,180.894 92.472,178.609 M67.996,186.575 C64.199,182.541 62.3,176.548 62.3,168.597 C62.3,160.291 64.184,154.238 67.952,150.441 C71.719,146.644 77.431,144.745 85.084,144.745 C92.739,144.745 98.493,146.689 102.351,150.574 C106.206,154.461 108.135,160.468 108.135,168.597 C108.135,176.429 106.147,182.392 102.172,186.485 C98.197,190.58 92.5,192.627 85.084,192.627 C77.489,192.627 71.793,190.61 67.996,186.575" id="Fill-21" fill="#0B1925"></path>
        <path d="M145.782,178.609 C147.442,176.326 148.274,172.988 148.274,168.597 C148.274,163.791 147.458,160.364 145.827,158.317 C144.194,156.27 141.718,155.247 138.395,155.247 C134.953,155.247 132.476,156.27 130.964,158.317 C129.451,160.364 128.694,163.791 128.694,168.597 C128.694,173.166 129.479,176.548 131.053,178.743 C132.624,180.939 135.071,182.036 138.395,182.036 C141.657,182.036 144.12,180.894 145.782,178.609 M121.307,186.575 C117.51,182.541 115.611,176.548 115.611,168.597 C115.611,160.291 117.494,154.238 121.262,150.441 C125.03,146.644 130.741,144.745 138.395,144.745 C146.049,144.745 151.803,146.689 155.661,150.574 C159.517,154.461 161.446,160.468 161.446,168.597 C161.446,176.429 159.458,182.392 155.483,186.485 C151.508,190.58 145.811,192.627 138.395,192.627 C130.8,192.627 125.103,190.61 121.307,186.575" id="Fill-22" fill="#0B1925"></path>
        <path d="M171.414,150.975 C172.304,150.204 173.861,149.344 176.086,148.394 C178.311,147.446 180.804,146.629 183.562,145.946 C186.321,145.265 188.976,144.923 191.527,144.923 C196.452,144.923 199.863,145.665 201.763,147.148 L201.763,156.849 C199.389,156.315 195.977,156.048 191.527,156.048 C188.738,156.048 186.455,156.197 184.675,156.493 L184.675,191.292 L171.414,191.292" id="Fill-23" fill="#0B1925"></path>
        <path d="M237.986,157.383 C235.612,156.137 233.299,155.514 231.044,155.514 C227.068,155.514 224.161,156.524 222.322,158.54 C220.482,160.558 219.563,163.969 219.563,168.775 C219.563,172.929 220.423,176.089 222.144,178.254 C223.864,180.42 226.742,181.502 230.777,181.502 C232.971,181.502 234.722,181.206 236.028,180.612 C237.333,180.02 237.986,179.188 237.986,178.12 L237.986,157.383 Z M251.158,127.746 L251.158,179.544 C251.158,182.334 250.179,184.706 248.221,186.664 C246.263,188.622 243.682,190.106 240.478,191.114 C237.274,192.122 233.861,192.627 230.243,192.627 C222.589,192.627 216.671,190.818 212.488,187.198 C208.304,183.58 206.213,177.319 206.213,168.419 C206.213,160.943 208.038,155.144 211.686,151.02 C215.336,146.897 220.689,144.834 227.751,144.834 C231.964,144.834 235.375,145.606 237.986,147.148 L237.986,127.746 L251.158,127.746 Z" id="Fill-24" fill="#0B1925"></path>
        <path d="M274.653,163.791 L291.296,163.791 C290.881,160.587 290.035,158.304 288.759,156.938 C287.483,155.574 285.6,154.891 283.108,154.891 C278.36,154.891 275.543,157.858 274.653,163.791 M304.468,172.246 L274.742,172.246 C275.869,178.476 280.051,181.591 287.291,181.591 C289.485,181.591 291.636,181.279 293.744,180.656 C295.849,180.034 298.09,179.219 300.463,178.209 L300.463,189.601 C295.597,191.617 290.139,192.627 284.087,192.627 C279.517,192.627 275.512,191.692 272.072,189.824 C268.631,187.955 265.961,185.27 264.062,181.769 C262.163,178.269 261.214,174.145 261.214,169.398 C261.214,161.566 263.157,155.5 267.044,151.197 C270.928,146.896 276.463,144.745 283.642,144.745 C297.704,144.745 304.646,153.912 304.468,172.246" id="Fill-25" fill="#0B1925"></path>
        <path d="M314.525,150.975 C315.415,150.204 316.972,149.344 319.197,148.394 C321.422,147.446 323.915,146.629 326.673,145.946 C329.432,145.265 332.087,144.923 334.638,144.923 C339.563,144.923 342.974,145.665 344.874,147.148 L344.874,156.849 C342.5,156.315 339.088,156.048 334.638,156.048 C331.849,156.048 329.566,156.197 327.786,156.493 L327.786,191.292 L314.525,191.292" id="Fill-26" fill="#0B1925"></path>
        <path d="M384.478,169.398 C384.478,160.202 381.036,155.603 374.154,155.603 C372.908,155.603 371.573,155.767 370.149,156.092 C368.725,156.419 367.479,156.879 366.411,157.472 L366.411,177.408 C366.411,180.198 368.903,181.591 373.887,181.591 C380.947,181.591 384.478,177.527 384.478,169.398 M392.488,151.064 C395.988,155.1 397.739,160.943 397.739,168.597 C397.679,184.617 389.788,192.627 374.065,192.627 C360.299,192.627 353.416,188.711 353.416,180.879 L353.416,129.615 L366.411,129.615 L366.411,147.86 C368.013,146.912 369.837,146.2 371.884,145.724 C373.931,145.25 375.755,145.012 377.358,145.012 C383.944,145.012 388.986,147.03 392.488,151.064" id="Fill-27" fill="#0B1925"></path>
        <path d="M435.387,178.609 C437.047,176.326 437.878,172.988 437.878,168.597 C437.878,163.791 437.062,160.364 435.431,158.317 C433.798,156.27 431.322,155.247 427.999,155.247 C424.558,155.247 422.081,156.27 420.568,158.317 C419.055,160.364 418.298,163.791 418.298,168.597 C418.298,173.166 419.084,176.548 420.658,178.743 C422.229,180.939 424.676,182.036 427.999,182.036 C431.262,182.036 433.725,180.894 435.387,178.609 M410.911,186.575 C407.114,182.541 405.215,176.548 405.215,168.597 C405.215,160.291 407.099,154.238 410.867,150.441 C414.634,146.644 420.346,144.745 427.999,144.745 C435.654,144.745 441.408,146.689 445.266,150.574 C449.121,154.461 451.05,160.468 451.05,168.597 C451.05,176.429 449.062,182.392 445.087,186.485 C441.112,190.58 435.415,192.627 427.999,192.627 C420.404,192.627 414.708,190.61 410.911,186.575" id="Fill-28" fill="#0B1925"></path>
        <g id="Group-32" transform="translate(458.000000, 144.000000)">
            <mask id="mask-4" fill="white">
                <use xlink:href="#path-3"></use>
            </mask>
            <g id="Clip-30"></g>
            <path d="M30.697,34.609 C32.357,32.326 33.188,28.988 33.188,24.597 C33.188,19.791 32.372,16.364 30.741,14.317 C29.108,12.27 26.632,11.247 23.309,11.247 C19.868,11.247 17.391,12.27 15.878,14.317 C14.365,16.364 13.608,19.791 13.608,24.597 C13.608,29.166 14.394,32.548 15.968,34.743 C17.539,36.939 19.986,38.036 23.309,38.036 C26.572,38.036 29.035,36.894 30.697,34.609 M6.221,42.575 C2.424,38.541 0.525,32.548 0.525,24.597 C0.525,16.291 2.409,10.238 6.177,6.441 C9.944,2.644 15.656,0.745 23.309,0.745 C30.964,0.745 36.718,2.689 40.576,6.574 C44.431,10.461 46.36,16.468 46.36,24.597 C46.36,32.429 44.372,38.392 40.397,42.485 C36.422,46.58 30.725,48.627 23.309,48.627 C15.714,48.627 10.018,46.61 6.221,42.575" id="Fill-29" fill="#0B1925" mask="url(#mask-4)"></path>
            <path d="M69.723,35.144 C71.533,37.547 73.951,38.748 76.977,38.748 C79.943,38.748 82.613,38.067 84.987,36.702 L84.987,16.054 C84.987,13.027 82.613,11.515 77.867,11.515 C70.627,11.515 67.009,16.143 67.009,25.398 C67.009,29.493 67.912,32.741 69.723,35.144 M92.864,4.172 C96.275,6.279 97.981,9.26 97.981,13.117 L97.981,47.827 C97.981,54.057 95.993,58.832 92.018,62.155 C88.042,65.477 82.375,67.14 75.019,67.14 C71.221,67.14 67.899,66.873 65.051,66.338 C62.202,65.805 59.978,65.092 58.375,64.203 L58.375,52.543 C60.096,53.373 62.499,54.175 65.584,54.946 C68.669,55.717 71.637,56.103 74.485,56.103 C78.341,56.103 81.055,55.331 82.628,53.79 C84.2,52.246 84.987,50.081 84.987,47.292 L84.987,44.711 C81.96,47.322 78.162,48.627 73.595,48.627 C67.305,48.33 62.439,46.329 58.998,42.62 C55.557,38.913 53.836,33.439 53.836,26.2 C53.836,16.825 55.987,10.284 60.289,6.575 C64.59,2.868 70.835,1.013 79.024,1.013 C84.838,1.013 89.451,2.066 92.864,4.172" id="Fill-31" fill="#0B1925" mask="url(#mask-4)"></path>
        </g>
    </g>
</svg>